<svg viewBox="0 0 240 240" xmlns="http://www.w3.org/2000/svg" role="img" aria-label="SoliProde">
  <title>SoliProde</title>
  <g stroke="#ffffff" stroke-width="7" stroke-linejoin="round">
    <g transform="rotate(0 120 120)"><path d="M120 120 C 116 94 126 62 114 36 C 156 40 186 72 172 114 C 163 142 132 146 120 120 Z" fill="#f2c200"></path></g>
    <g transform="rotate(120 120 120)"><path d="M120 120 C 116 94 126 62 114 36 C 156 40 186 72 172 114 C 163 142 132 146 120 120 Z" fill="#0a4fb0"></path></g>
    <g transform="rotate(240 120 120)"><path d="M120 120 C 116 94 126 62 114 36 C 156 40 186 72 172 114 C 163 142 132 146 120 120 Z" fill="#79c0ef"></path></g>
  </g>
</svg>